<svg xmlns="http://www.w3.org/2000/svg" width="106" height="20" viewBox="0 0 106 20">
    <g fill="none" fill-rule="nonzero">
        <path fill="#FFF" d="M4.912 5.488c2.64 0 3.92 1.936 3.92 3.808 0 2.096-1.52 3.856-3.84 3.856H3.328v1.52c0 .752-.528 1.328-1.28 1.328s-1.28-.576-1.28-1.328V6.816c0-.752.528-1.328 1.28-1.328h2.864zm-.288 5.28c1.28 0 1.648-.656 1.648-1.472s-.384-1.44-1.568-1.44H3.328v2.912h1.296zm6.544-6.08c.736 0 1.248.56 1.248 1.312v8.704c0 .752-.512 1.296-1.248 1.296s-1.264-.544-1.264-1.296V6c0-.752.528-1.312 1.264-1.312zm6.88 3.152c2.192 0 4.112 1.52 4.112 3.824v3.04c0 .752-.496 1.296-1.232 1.296-.56 0-.976-.304-1.152-.784h-.08c-.256.4-.912.912-2.128.912-2.08 0-4.048-1.616-4.048-4.08 0-2.592 1.936-4.208 4.528-4.208zm-.144 6.048c.96 0 1.776-.592 1.776-1.872v-.224c0-1.04-.64-1.728-1.744-1.728-1.28 0-1.888.928-1.888 1.952 0 1.136.752 1.872 1.856 1.872zm12.48-5.92c.736 0 1.264.544 1.264 1.296v5.472c0 2.528-1.984 3.84-4.32 3.84-.896 0-1.68-.112-2.304-.32-.64-.24-.816-.688-.64-1.28.208-.624.688-.8 1.328-.64.56.16.944.208 1.344.192 1.312-.016 2.144-.64 2.144-2v-.016h-.096c-.272.448-.928 1.056-2.208 1.056-1.632 0-3.424-.96-3.424-3.504v-2.8c0-.752.512-1.296 1.248-1.296s1.264.544 1.264 1.296v2.528c0 1.344.624 1.696 1.552 1.68 1.104-.016 1.6-.576 1.6-1.28V9.264c0-.752.512-1.296 1.248-1.296zm10.624 8.16c-2.496 0-4.384-1.728-4.384-4.144 0-2.4 1.888-4.144 4.384-4.144 2.48 0 4.368 1.744 4.368 4.144 0 2.416-1.888 4.144-4.368 4.144zm0-2.24c1.152 0 1.84-.848 1.84-1.904 0-1.04-.688-1.92-1.84-1.92-1.168 0-1.856.88-1.856 1.92 0 1.056.688 1.904 1.856 1.904zm10.16-6.048c1.632 0 3.136.96 3.136 3.328v3.52c0 .752-.496 1.312-1.248 1.312s-1.264-.56-1.264-1.312V11.6c0-1.184-.528-1.52-1.344-1.52-1.04 0-1.488.656-1.488 1.152v3.456c0 .752-.512 1.312-1.264 1.312s-1.248-.56-1.248-1.312V9.28c0-.752.512-1.312 1.264-1.312.48 0 .944.272 1.072.832v.016h.096c.464-.528 1.248-.976 2.288-.976zM81.904 16.298c-3.488 0-6.325-2.873-6.325-6.405 0-3.388 2.896-6.252 6.325-6.252 3.428 0 6.326 2.864 6.326 6.252 0 3.532-2.838 6.405-6.326 6.405zm-12.545-4.39l-2.222.003V8.06l2.161.003c.56 0 1.494.373 1.494 1.849 0 .945-.397 1.995-1.433 1.995zm30.866-4.657h5.476v8.739H95.6l-1.92-4.105-.596.136v3.969h-3.893a7.868 7.868 0 0 1-.333.4c-1.669 1.866-4.059 2.851-6.912 2.851-2.916 0-5.34-.988-7.01-2.859a8.482 8.482 0 0 1-1.309-1.978c-1.098 1.124-2.62 1.719-4.422 1.719h-2.069v3.816H63V3.949h6.206c1.807 0 3.33.474 4.423 1.584.34-.7.762-1.348 1.265-1.922 1.67-1.905 4.108-2.914 7.053-2.914 2.689 0 4.965.877 6.613 2.542V.005L93.085 0v7.591c1.297-.416 1.768-1.085 1.83-2.518V3.949h4.45l-.001 1.165c-.052 1.425-.514 3.405-1.65 4.809l2.511 5.39V7.25zm2.738-.99c-1.537 0-2.788-1.267-2.788-2.823 0-1.494 1.277-2.756 2.788-2.756s2.788 1.262 2.788 2.756c0 1.556-1.25 2.823-2.788 2.823z"/>
        <path fill="#009CFF" d="M81.904 10.356c-2.797 0-4.212.485-4.795.634.488 2.226 2.452 3.895 4.795 3.895s4.307-1.67 4.795-3.895c-.583-.149-1.998-.634-4.795-.634"/>
    </g>
</svg>
